<mxfile host="Electron" agent="Mozilla/5.0 (X11; Linux x86_64) AppleWebKit/537.36 (KHTML, like Gecko) draw.io/26.1.1 Chrome/132.0.6834.210 Electron/34.3.3 Safari/537.36" version="26.1.1">
  <diagram name="Página-1" id="nySIsJgFNYcrs0NSx1gd">
    <mxGraphModel dx="1880" dy="2998" grid="1" gridSize="10" guides="1" tooltips="1" connect="1" arrows="1" fold="1" page="1" pageScale="1" pageWidth="827" pageHeight="1169" math="0" shadow="0">
      <root>
        <mxCell id="0" />
        <mxCell id="1" parent="0" />
        <mxCell id="S7S1zx98gVq3suyJHp8u-1" value="ReprodutorMusicalImpl" style="html=1;whiteSpace=wrap;" vertex="1" parent="1">
          <mxGeometry x="-160" y="-80" width="180" height="40" as="geometry" />
        </mxCell>
        <mxCell id="S7S1zx98gVq3suyJHp8u-3" value="AparelhoTelefonicoImpl" style="html=1;whiteSpace=wrap;" vertex="1" parent="1">
          <mxGeometry x="80" y="-80" width="190" height="40" as="geometry" />
        </mxCell>
        <mxCell id="S7S1zx98gVq3suyJHp8u-4" value="NavegadorInternetIMpl" style="html=1;whiteSpace=wrap;" vertex="1" parent="1">
          <mxGeometry x="640" y="-100" width="170" height="40" as="geometry" />
        </mxCell>
        <mxCell id="S7S1zx98gVq3suyJHp8u-5" value="Iphone" style="html=1;whiteSpace=wrap;" vertex="1" parent="1">
          <mxGeometry x="330" y="-140" width="230" height="60" as="geometry" />
        </mxCell>
        <mxCell id="S7S1zx98gVq3suyJHp8u-37" style="edgeStyle=orthogonalEdgeStyle;rounded=0;orthogonalLoop=1;jettySize=auto;html=1;exitX=0.25;exitY=1;exitDx=0;exitDy=0;entryX=0;entryY=0;entryDx=0;entryDy=0;dashed=1;" edge="1" parent="1" source="S7S1zx98gVq3suyJHp8u-10" target="S7S1zx98gVq3suyJHp8u-28">
          <mxGeometry relative="1" as="geometry">
            <Array as="points">
              <mxPoint x="128" y="160" />
            </Array>
          </mxGeometry>
        </mxCell>
        <mxCell id="S7S1zx98gVq3suyJHp8u-10" value="&lt;p style=&quot;margin:0px;margin-top:4px;text-align:center;text-decoration:underline;&quot;&gt;&lt;br&gt;&lt;/p&gt;&lt;hr size=&quot;1&quot; style=&quot;border-style:solid;&quot;&gt;&lt;p style=&quot;margin:0px;margin-left:8px;&quot;&gt;+ligar(numero)&lt;br&gt;+atender()&lt;br&gt;+iniciarCorreioVoz&lt;/p&gt;" style="verticalAlign=top;align=left;overflow=fill;html=1;whiteSpace=wrap;" vertex="1" parent="1">
          <mxGeometry x="80" y="-40" width="190" height="80" as="geometry" />
        </mxCell>
        <mxCell id="S7S1zx98gVq3suyJHp8u-36" style="edgeStyle=orthogonalEdgeStyle;rounded=0;orthogonalLoop=1;jettySize=auto;html=1;exitX=0.5;exitY=1;exitDx=0;exitDy=0;entryX=0;entryY=0;entryDx=0;entryDy=0;elbow=vertical;dashed=1;" edge="1" parent="1" source="S7S1zx98gVq3suyJHp8u-15" target="S7S1zx98gVq3suyJHp8u-21">
          <mxGeometry relative="1" as="geometry">
            <Array as="points">
              <mxPoint x="-70" y="105" />
              <mxPoint x="-160" y="105" />
              <mxPoint x="-160" y="160" />
            </Array>
          </mxGeometry>
        </mxCell>
        <mxCell id="S7S1zx98gVq3suyJHp8u-15" value="&lt;p style=&quot;margin:0px;margin-top:4px;text-align:center;text-decoration:underline;&quot;&gt;&lt;br&gt;&lt;/p&gt;&lt;hr size=&quot;1&quot; style=&quot;border-style:solid;&quot;&gt;&lt;p style=&quot;margin:0px;margin-left:8px;&quot;&gt;+tocar()&lt;/p&gt;&lt;p style=&quot;margin:0px;margin-left:8px;&quot;&gt;+pausar()&lt;br&gt;+selecionarMusica(musica)&lt;/p&gt;" style="verticalAlign=top;align=left;overflow=fill;html=1;whiteSpace=wrap;" vertex="1" parent="1">
          <mxGeometry x="-160" y="-40" width="180" height="90" as="geometry" />
        </mxCell>
        <mxCell id="S7S1zx98gVq3suyJHp8u-38" style="edgeStyle=orthogonalEdgeStyle;rounded=0;orthogonalLoop=1;jettySize=auto;html=1;exitX=0.5;exitY=1;exitDx=0;exitDy=0;entryX=0.5;entryY=0;entryDx=0;entryDy=0;dashed=1;" edge="1" parent="1" source="S7S1zx98gVq3suyJHp8u-20" target="S7S1zx98gVq3suyJHp8u-30">
          <mxGeometry relative="1" as="geometry" />
        </mxCell>
        <mxCell id="S7S1zx98gVq3suyJHp8u-20" value="&lt;p style=&quot;margin:0px;margin-top:4px;text-align:center;text-decoration:underline;&quot;&gt;&lt;br&gt;&lt;/p&gt;&lt;hr size=&quot;1&quot; style=&quot;border-style:solid;&quot;&gt;&lt;p style=&quot;margin:0px;margin-left:8px;&quot;&gt;+exibirPagina(url)&lt;/p&gt;&lt;p style=&quot;margin:0px;margin-left:8px;&quot;&gt;+adicionarNovaAba()&lt;br&gt;+atualizarPagina()&lt;/p&gt;" style="verticalAlign=top;align=left;overflow=fill;html=1;whiteSpace=wrap;" vertex="1" parent="1">
          <mxGeometry x="640" y="-60" width="170" height="90" as="geometry" />
        </mxCell>
        <mxCell id="S7S1zx98gVq3suyJHp8u-21" value="«interface»&lt;br&gt;&lt;b&gt;IReprodutorMusical&lt;/b&gt;" style="html=1;whiteSpace=wrap;" vertex="1" parent="1">
          <mxGeometry x="-80" y="160" width="160" height="50" as="geometry" />
        </mxCell>
        <mxCell id="S7S1zx98gVq3suyJHp8u-26" value="&lt;p style=&quot;margin:0px;margin-top:4px;text-align:center;text-decoration:underline;&quot;&gt;&lt;br&gt;&lt;/p&gt;&lt;hr size=&quot;1&quot; style=&quot;border-style:solid;&quot;&gt;&lt;p style=&quot;margin:0px;margin-left:8px;&quot;&gt;+tocar()&lt;/p&gt;&lt;p style=&quot;margin:0px;margin-left:8px;&quot;&gt;+pausar()&lt;/p&gt;&lt;p style=&quot;margin:0px;margin-left:8px;&quot;&gt;+selecionarMusica(musica)&lt;/p&gt;" style="verticalAlign=top;align=left;overflow=fill;html=1;whiteSpace=wrap;" vertex="1" parent="1">
          <mxGeometry x="-80" y="210" width="160" height="90" as="geometry" />
        </mxCell>
        <mxCell id="S7S1zx98gVq3suyJHp8u-28" value="«interface»&lt;br&gt;&lt;b&gt;IAparelhoTelefonico&lt;/b&gt;" style="html=1;whiteSpace=wrap;" vertex="1" parent="1">
          <mxGeometry x="170" y="160" width="160" height="50" as="geometry" />
        </mxCell>
        <mxCell id="S7S1zx98gVq3suyJHp8u-29" value="&lt;p style=&quot;margin:0px;margin-top:4px;text-align:center;text-decoration:underline;&quot;&gt;&lt;br&gt;&lt;/p&gt;&lt;hr size=&quot;1&quot; style=&quot;border-style:solid;&quot;&gt;&lt;p style=&quot;margin:0px;margin-left:8px;&quot;&gt;+ligar(numero)&lt;/p&gt;&lt;p style=&quot;margin:0px;margin-left:8px;&quot;&gt;+atender()&lt;/p&gt;&lt;p style=&quot;margin:0px;margin-left:8px;&quot;&gt;=iniciarCorreioVoz&lt;/p&gt;" style="verticalAlign=top;align=left;overflow=fill;html=1;whiteSpace=wrap;" vertex="1" parent="1">
          <mxGeometry x="170" y="210" width="160" height="90" as="geometry" />
        </mxCell>
        <mxCell id="S7S1zx98gVq3suyJHp8u-30" value="«interface»&lt;br&gt;&lt;b&gt;INavegadorInternet&lt;/b&gt;" style="html=1;whiteSpace=wrap;" vertex="1" parent="1">
          <mxGeometry x="560" y="140" width="160" height="50" as="geometry" />
        </mxCell>
        <mxCell id="S7S1zx98gVq3suyJHp8u-31" value="&lt;p style=&quot;margin:0px;margin-top:4px;text-align:center;text-decoration:underline;&quot;&gt;&lt;br&gt;&lt;/p&gt;&lt;hr size=&quot;1&quot; style=&quot;border-style:solid;&quot;&gt;&lt;p style=&quot;margin:0px;margin-left:8px;&quot;&gt;exibirPagina(url)&lt;/p&gt;&lt;p style=&quot;margin:0px;margin-left:8px;&quot;&gt;adicionarNovaAba&lt;/p&gt;&lt;p style=&quot;margin:0px;margin-left:8px;&quot;&gt;atualizarPagina()&lt;/p&gt;" style="verticalAlign=top;align=left;overflow=fill;html=1;whiteSpace=wrap;" vertex="1" parent="1">
          <mxGeometry x="560" y="190" width="160" height="90" as="geometry" />
        </mxCell>
        <mxCell id="S7S1zx98gVq3suyJHp8u-34" value="&lt;p style=&quot;margin:0px;margin-top:4px;text-align:center;&quot;&gt;&lt;b&gt;-reprodutor: IReprodutorMusical&lt;/b&gt;&lt;/p&gt;&lt;p style=&quot;margin:0px;margin-top:4px;text-align:center;&quot;&gt;&lt;b&gt;-telefone:IAparelhoTelefonico&lt;/b&gt;&lt;/p&gt;&lt;p style=&quot;margin:0px;margin-top:4px;text-align:center;&quot;&gt;&lt;b&gt;-navegador: INavegadorInternet&lt;/b&gt;&lt;/p&gt;" style="verticalAlign=top;align=left;overflow=fill;html=1;whiteSpace=wrap;" vertex="1" parent="1">
          <mxGeometry x="330" y="-80" width="230" height="60" as="geometry" />
        </mxCell>
        <mxCell id="S7S1zx98gVq3suyJHp8u-39" style="edgeStyle=orthogonalEdgeStyle;rounded=0;orthogonalLoop=1;jettySize=auto;html=1;exitX=0.5;exitY=1;exitDx=0;exitDy=0;entryX=1.002;entryY=0.047;entryDx=0;entryDy=0;entryPerimeter=0;strokeWidth=3;" edge="1" parent="1" target="S7S1zx98gVq3suyJHp8u-28">
          <mxGeometry relative="1" as="geometry">
            <mxPoint x="455" y="10" as="sourcePoint" />
            <mxPoint x="340" y="170" as="targetPoint" />
            <Array as="points">
              <mxPoint x="455" y="160" />
              <mxPoint x="340" y="160" />
              <mxPoint x="340" y="162" />
            </Array>
          </mxGeometry>
        </mxCell>
        <mxCell id="S7S1zx98gVq3suyJHp8u-40" value="usa" style="edgeLabel;html=1;align=center;verticalAlign=middle;resizable=0;points=[];" vertex="1" connectable="0" parent="S7S1zx98gVq3suyJHp8u-39">
          <mxGeometry x="0.0323" y="2" relative="1" as="geometry">
            <mxPoint as="offset" />
          </mxGeometry>
        </mxCell>
        <mxCell id="S7S1zx98gVq3suyJHp8u-41" style="edgeStyle=orthogonalEdgeStyle;rounded=0;orthogonalLoop=1;jettySize=auto;html=1;exitX=0.25;exitY=1;exitDx=0;exitDy=0;entryX=1;entryY=0.25;entryDx=0;entryDy=0;strokeWidth=3;" edge="1" parent="1" source="S7S1zx98gVq3suyJHp8u-35" target="S7S1zx98gVq3suyJHp8u-21">
          <mxGeometry relative="1" as="geometry">
            <Array as="points">
              <mxPoint x="388" y="90" />
              <mxPoint x="280" y="90" />
              <mxPoint x="280" y="110" />
              <mxPoint x="120" y="110" />
              <mxPoint x="120" y="173" />
            </Array>
          </mxGeometry>
        </mxCell>
        <mxCell id="S7S1zx98gVq3suyJHp8u-44" value="usa" style="edgeLabel;html=1;align=center;verticalAlign=middle;resizable=0;points=[];" vertex="1" connectable="0" parent="S7S1zx98gVq3suyJHp8u-41">
          <mxGeometry x="-0.2209" y="5" relative="1" as="geometry">
            <mxPoint as="offset" />
          </mxGeometry>
        </mxCell>
        <mxCell id="S7S1zx98gVq3suyJHp8u-42" style="edgeStyle=orthogonalEdgeStyle;rounded=0;orthogonalLoop=1;jettySize=auto;html=1;exitX=0.75;exitY=1;exitDx=0;exitDy=0;entryX=0;entryY=0.25;entryDx=0;entryDy=0;strokeWidth=3;" edge="1" parent="1" source="S7S1zx98gVq3suyJHp8u-35" target="S7S1zx98gVq3suyJHp8u-31">
          <mxGeometry relative="1" as="geometry" />
        </mxCell>
        <mxCell id="S7S1zx98gVq3suyJHp8u-43" value="usa" style="edgeLabel;html=1;align=center;verticalAlign=middle;resizable=0;points=[];" vertex="1" connectable="0" parent="S7S1zx98gVq3suyJHp8u-42">
          <mxGeometry x="0.4653" y="-1" relative="1" as="geometry">
            <mxPoint as="offset" />
          </mxGeometry>
        </mxCell>
        <mxCell id="S7S1zx98gVq3suyJHp8u-35" value="&lt;p style=&quot;margin:0px;margin-top:4px;text-align:center;&quot;&gt;&lt;b&gt;+selecionarMusica(musica)&lt;/b&gt;&lt;/p&gt;&lt;p style=&quot;margin:0px;margin-top:4px;text-align:center;&quot;&gt;&lt;b&gt;+ligar(numero)&lt;/b&gt;&lt;/p&gt;&lt;p style=&quot;text-align: center; margin: 4px 0px 0px;&quot;&gt;&lt;b&gt;+exibirPagina(url)&lt;/b&gt;&lt;/p&gt;" style="verticalAlign=top;align=left;overflow=fill;html=1;whiteSpace=wrap;" vertex="1" parent="1">
          <mxGeometry x="330" y="-20" width="230" height="70" as="geometry" />
        </mxCell>
      </root>
    </mxGraphModel>
  </diagram>
</mxfile>
